<svg width="753" height="572" viewBox="0 0 753 572" fill="none" xmlns="http://www.w3.org/2000/svg">
<path d="M7.57324 195.424C7.57324 186.798 8.67188 178.497 10.8691 170.521C13.1478 162.465 16.4437 154.978 20.7568 148.061C25.07 141.143 30.3597 134.836 36.626 129.14C42.8923 123.443 50.013 118.56 57.9883 114.491C66.0449 110.422 74.9154 107.289 84.5996 105.092C94.2839 102.813 104.701 101.674 115.85 101.674C123.011 101.674 129.847 102.121 136.357 103.017C142.949 103.912 149.134 105.173 154.912 106.801C160.69 108.347 166.021 110.178 170.903 112.294C175.868 114.328 180.343 116.485 184.331 118.764L173.833 139.271C169.276 137.074 164.067 135.243 158.208 133.778C152.43 132.232 146.408 131.459 140.142 131.459C131.759 131.459 123.988 132.965 116.826 135.976C109.665 138.987 103.48 143.259 98.2715 148.793C93.0632 154.327 88.9535 161.041 85.9424 168.935C83.0127 176.747 81.5479 185.536 81.5479 195.302C81.5479 204.986 83.0127 213.775 85.9424 221.669C88.8721 229.481 92.9004 236.195 98.0273 241.811C103.236 247.344 109.38 251.658 116.46 254.75C123.621 257.761 131.353 259.267 139.653 259.267C145.513 259.267 151.372 258.575 157.231 257.191C163.091 255.727 168.462 253.814 173.345 251.454L183.843 271.962C179.855 274.322 175.42 276.519 170.537 278.554C165.654 280.588 160.365 282.419 154.668 284.047C148.971 285.593 142.868 286.814 136.357 287.709C129.847 288.604 123.011 289.052 115.85 289.052C99.1667 289.052 84.1113 286.61 70.6836 281.728C57.3372 276.763 45.9847 270.049 36.626 261.586C27.2673 253.041 20.0651 243.113 15.0195 231.801C10.0553 220.408 7.57324 208.282 7.57324 195.424ZM198.491 225.575C198.491 215.972 200.444 207.305 204.351 199.574C208.338 191.843 214.035 185.251 221.44 179.799C228.927 174.346 238.042 170.155 248.784 167.226C259.526 164.215 271.733 162.709 285.405 162.709C299.077 162.709 311.284 164.215 322.026 167.226C332.769 170.155 341.842 174.346 349.248 179.799C356.735 185.251 362.432 191.843 366.338 199.574C370.326 207.305 372.319 215.972 372.319 225.575C372.319 235.097 370.326 243.723 366.338 251.454C362.432 259.185 356.735 265.777 349.248 271.229C341.842 276.682 332.769 280.914 322.026 283.925C311.284 286.854 299.077 288.319 285.405 288.319C271.733 288.319 259.526 286.854 248.784 283.925C238.042 280.914 228.927 276.682 221.44 271.229C214.035 265.777 208.338 259.185 204.351 251.454C200.444 243.723 198.491 235.097 198.491 225.575ZM285.405 265.98C288.416 265.98 291.102 265.37 293.462 264.149C295.822 262.929 297.775 260.813 299.321 257.802C300.868 254.709 302.048 250.559 302.861 245.351C303.675 240.142 304.082 233.55 304.082 225.575C304.082 217.519 303.675 210.886 302.861 205.678C302.048 200.469 300.868 196.36 299.321 193.349C297.775 190.256 295.822 188.1 293.462 186.879C291.102 185.658 288.416 185.048 285.405 185.048C282.313 185.048 279.587 185.658 277.227 186.879C274.948 188.1 273.035 190.256 271.489 193.349C269.943 196.36 268.763 200.469 267.949 205.678C267.135 210.886 266.729 217.519 266.729 225.575C266.729 233.55 267.135 240.142 267.949 245.351C268.763 250.559 269.943 254.709 271.489 257.802C273.035 260.813 274.948 262.929 277.227 264.149C279.587 265.37 282.313 265.98 285.405 265.98ZM398.564 165.028H457.036L462.896 182.606C471.522 176.015 480.27 171.05 489.141 167.714C498.092 164.377 507.492 162.709 517.339 162.709C522.954 162.709 528.162 163.645 532.964 165.517C537.847 167.388 542.078 170.277 545.659 174.184C549.24 178.09 552.048 183.135 554.082 189.32C556.117 195.424 557.134 202.748 557.134 211.293V286H490.85V207.143C490.85 202.911 489.914 199.818 488.042 197.865C486.17 195.912 483.444 194.936 479.863 194.936C477.503 194.936 474.899 195.424 472.051 196.4C469.202 197.377 466.802 198.923 464.849 201.039V286H398.564V165.028Z" fill="#0D0D0D" fill-opacity="0.7"/>
<path d="M178.048 356.17H164.376V336.028H178.048V295.745H244.332V336.028H276.192L263.741 356.17H244.332V410.979C244.332 419.28 246.163 425.669 249.825 430.145C253.569 434.62 258.899 436.858 265.816 436.858L258.248 453.582C254.016 455.372 249.5 456.756 244.698 457.732C239.978 458.79 234.485 459.319 228.219 459.319C219.43 459.319 211.861 458.221 205.514 456.023C199.166 453.745 193.958 450.53 189.889 446.38C185.82 442.229 182.809 437.143 180.855 431.121C178.984 425.099 178.048 418.304 178.048 410.735V356.17ZM287.911 418.914C287.911 413.055 289.213 407.602 291.817 402.557C294.422 397.511 298.165 393.117 303.048 389.373C307.931 385.63 313.831 382.7 320.748 380.584C327.665 378.387 335.396 377.288 343.941 377.288C352.486 377.288 360.462 378.305 367.867 380.34C375.354 382.293 381.62 384.816 386.666 387.908V386.932C386.666 381.235 386.015 376.393 384.713 372.405C383.492 368.418 381.58 365.162 378.976 362.64C376.371 360.117 373.035 358.286 368.966 357.146C364.978 356.007 360.258 355.438 354.806 355.438C349.841 355.438 344.715 355.885 339.425 356.78C334.135 357.594 329.252 358.815 324.776 360.442L315.865 343.963C324.736 340.301 333.891 337.697 343.331 336.15C352.853 334.523 362.659 333.709 372.75 333.709C385.689 333.709 397.123 334.97 407.052 337.493C417.062 339.935 425.444 343.637 432.198 348.602C439.034 353.484 444.202 359.669 447.701 367.156C451.201 374.562 452.95 383.27 452.95 393.279V457H391.061L386.91 445.281C384.469 447.153 381.58 448.943 378.243 450.652C374.907 452.361 371.244 453.867 367.257 455.169C363.269 456.471 359.037 457.488 354.562 458.221C350.086 458.953 345.406 459.319 340.523 459.319C332.548 459.319 325.305 458.302 318.795 456.268C312.366 454.152 306.873 451.303 302.315 447.723C297.758 444.142 294.218 439.91 291.695 435.027C289.173 430.063 287.911 424.692 287.911 418.914ZM356.271 416.351C356.271 420.745 357.695 424.326 360.543 427.093C363.391 429.778 367.216 431.121 372.018 431.121C374.622 431.121 377.185 430.714 379.708 429.9C382.231 429.005 384.55 427.703 386.666 425.994V405.364C382.597 402.923 378.121 401.702 373.238 401.702C367.704 401.702 363.473 403.086 360.543 405.853C357.695 408.538 356.271 412.037 356.271 416.351ZM477.975 396.453C477.975 388.234 479.684 380.34 483.102 372.771C486.601 365.203 491.85 358.53 498.849 352.752C505.847 346.974 514.677 342.376 525.338 338.958C536.08 335.459 548.694 333.709 563.18 333.709C573.596 333.709 582.507 334.726 589.913 336.761C597.319 338.714 603.382 341.318 608.102 344.573C612.822 347.828 616.28 351.531 618.478 355.682C620.675 359.832 621.773 364.064 621.773 368.377C621.773 371.714 621 374.887 619.454 377.898C617.908 380.91 615.833 383.595 613.229 385.955C610.624 388.234 607.573 390.065 604.073 391.448C600.574 392.832 596.871 393.523 592.965 393.523L561.959 351.165C559.68 353.2 557.564 355.6 555.611 358.367C553.74 361.134 552.071 364.308 550.606 367.889C549.223 371.388 548.124 375.335 547.311 379.729C546.578 384.043 546.212 388.803 546.212 394.012C546.212 401.255 547.107 407.602 548.897 413.055C550.688 418.507 553.129 423.064 556.222 426.727C559.314 430.307 562.976 433.034 567.208 434.905C571.521 436.696 576.201 437.591 581.246 437.591C583.688 437.591 586.129 437.428 588.57 437.103C591.093 436.696 593.453 436.207 595.65 435.638C597.929 434.987 600.004 434.254 601.876 433.44C603.748 432.627 605.335 431.772 606.637 430.877L616.402 447.967C613.391 449.513 610.095 450.978 606.515 452.361C603.015 453.745 599.109 454.965 594.796 456.023C590.564 457 585.885 457.773 580.758 458.343C575.631 458.994 570.016 459.319 563.912 459.319C549.264 459.319 536.528 457.61 525.704 454.192C514.962 450.693 506.051 446.054 498.971 440.276C491.891 434.498 486.601 427.825 483.102 420.257C479.684 412.688 477.975 404.754 477.975 396.453ZM651.925 356.17H638.253V336.028H651.925V295.745H718.209V336.028H750.069L737.618 356.17H718.209V410.979C718.209 419.28 720.04 425.669 723.702 430.145C727.446 434.62 732.776 436.858 739.693 436.858L732.125 453.582C727.893 455.372 723.377 456.756 718.575 457.732C713.855 458.79 708.362 459.319 702.096 459.319C693.307 459.319 685.738 458.221 679.391 456.023C673.043 453.745 667.835 450.53 663.766 446.38C659.697 442.229 656.686 437.143 654.732 431.121C652.861 425.099 651.925 418.304 651.925 410.735V356.17Z" fill="#0D0D0D" fill-opacity="0.7"/>
</svg>
