<svg width="752" height="572" viewBox="0 0 752 572" fill="none" xmlns="http://www.w3.org/2000/svg">
<path d="M25.6348 245.717C34.2611 250.111 43.2943 253.407 52.7344 255.604C62.1745 257.802 70.9635 258.9 79.1016 258.9C88.4603 258.9 95.2962 257.558 99.6094 254.872C104.004 252.187 106.201 248.524 106.201 243.886C106.201 242.421 105.916 240.915 105.347 239.369C104.858 237.823 103.841 236.317 102.295 234.853C100.83 233.306 98.7549 231.801 96.0693 230.336C93.4652 228.79 90.0472 227.284 85.8154 225.819L63.9648 218.373C48.3398 213.002 36.5804 205.759 28.6865 196.645C20.7926 187.449 16.8457 176.544 16.8457 163.93C16.8457 155.792 18.5547 147.979 21.9727 140.492C25.3906 132.924 30.5583 126.291 37.4756 120.595C44.3929 114.817 53.1006 110.219 63.5986 106.801C74.1781 103.383 86.5479 101.674 100.708 101.674C107.707 101.674 114.421 102.081 120.85 102.895C127.279 103.708 133.301 104.766 138.916 106.068C144.613 107.37 149.821 108.876 154.541 110.585C159.261 112.213 163.411 113.84 166.992 115.468L153.809 139.271C151.204 137.644 148.438 136.22 145.508 134.999C142.66 133.778 139.771 132.761 136.841 131.947C133.993 131.133 131.185 130.523 128.418 130.116C125.651 129.709 123.128 129.506 120.85 129.506C116.943 129.506 113.525 130.035 110.596 131.093C107.666 132.069 105.184 133.412 103.149 135.121C101.196 136.749 99.6908 138.62 98.6328 140.736C97.6562 142.771 97.168 144.805 97.168 146.84C97.168 148.63 97.5749 150.38 98.3887 152.089C99.2839 153.716 100.749 155.344 102.783 156.972C104.899 158.518 107.625 160.105 110.962 161.732C114.38 163.279 118.612 164.906 123.657 166.615L138.306 171.498C154.175 176.788 166.3 184.071 174.683 193.349C183.065 202.626 187.256 213.856 187.256 227.04C187.256 235.992 185.221 244.252 181.152 251.82C177.165 259.389 171.183 265.94 163.208 271.474C155.233 276.926 145.304 281.199 133.423 284.291C121.623 287.302 107.91 288.808 92.2852 288.808C84.7982 288.808 77.5553 288.401 70.5566 287.587C63.6393 286.854 56.8441 285.715 50.1709 284.169C43.5791 282.623 37.0687 280.67 30.6396 278.31C24.2106 275.95 17.7816 273.183 11.3525 270.009L25.6348 245.717ZM207.153 224.843C207.153 217.844 208.252 211.456 210.449 205.678C212.646 199.9 215.658 194.732 219.482 190.175C223.389 185.536 227.987 181.508 233.276 178.09C238.566 174.672 244.303 171.824 250.488 169.545C256.673 167.266 263.143 165.557 269.897 164.418C276.652 163.279 283.488 162.709 290.405 162.709C299.52 162.709 307.78 163.645 315.186 165.517C322.673 167.307 329.305 169.789 335.083 172.963C340.942 176.137 345.988 179.84 350.22 184.071C354.533 188.303 358.073 192.82 360.84 197.621C363.688 202.341 365.763 207.224 367.065 212.27C368.449 217.315 369.141 222.239 369.141 227.04L276.855 238.148C278.646 247.182 282.227 254.18 287.598 259.145C292.969 264.109 300.496 266.591 310.181 266.591C315.47 266.591 320.394 265.94 324.951 264.638C329.59 263.336 333.211 261.749 335.815 259.877L345.581 276.967C342.57 278.513 339.274 279.978 335.693 281.361C332.194 282.745 328.288 283.965 323.975 285.023C319.743 286 315.023 286.773 309.814 287.343C304.688 287.994 299.032 288.319 292.847 288.319C278.035 288.319 265.259 286.61 254.517 283.192C243.774 279.693 234.863 275.054 227.783 269.276C220.785 263.417 215.576 256.662 212.158 249.013C208.822 241.363 207.153 233.306 207.153 224.843ZM309.937 214.589C309.937 204.009 308.594 196.319 305.908 191.518C303.304 186.716 299.398 184.315 294.189 184.315C291.504 184.315 289.022 184.966 286.743 186.269C284.465 187.571 282.511 189.605 280.884 192.372C279.256 195.139 277.954 198.72 276.978 203.114C276.001 207.427 275.472 212.676 275.391 218.861L309.937 214.589ZM392.09 165.028H450.562L456.421 182.606C461.06 179.188 465.413 176.259 469.482 173.817C473.633 171.295 477.62 169.219 481.445 167.592C485.352 165.883 489.095 164.662 492.676 163.93C496.338 163.116 499.959 162.709 503.54 162.709C508.748 162.709 513.428 163.441 517.578 164.906C521.81 166.371 525.391 168.446 528.32 171.132C531.331 173.817 533.61 177.032 535.156 180.775C536.784 184.438 537.598 188.507 537.598 192.982C537.598 197.458 536.621 201.568 534.668 205.312C532.796 209.055 530.029 212.31 526.367 215.077C522.705 217.763 518.188 219.879 512.817 221.425C507.528 222.89 501.465 223.622 494.629 223.622L473.145 194.936C470.785 194.936 468.221 195.424 465.454 196.4C462.687 197.377 460.327 198.923 458.374 201.039V286H392.09V165.028Z" fill="#0D0D0D" fill-opacity="0.7"/>
<path d="M159.366 336.028H228.702L257.633 414.642L285.587 336.028H312.931L267.887 457H242.496V456.878H208.072L159.366 336.028ZM364.933 315.887C358.91 315.887 353.702 315.236 349.308 313.934C344.994 312.632 341.454 310.841 338.688 308.562C335.921 306.202 333.886 303.517 332.584 300.506C331.282 297.413 330.631 294.077 330.631 290.496C330.631 286.997 331.282 283.701 332.584 280.608C333.886 277.516 335.921 274.83 338.688 272.552C341.454 270.192 344.994 268.361 349.308 267.059C353.702 265.757 358.91 265.105 364.933 265.105C371.036 265.105 376.244 265.757 380.558 267.059C384.871 268.361 388.411 270.192 391.178 272.552C394.026 274.83 396.101 277.516 397.403 280.608C398.705 283.701 399.356 286.997 399.356 290.496C399.356 294.077 398.705 297.413 397.403 300.506C396.101 303.517 394.026 306.202 391.178 308.562C388.411 310.841 384.871 312.632 380.558 313.934C376.244 315.236 371.036 315.887 364.933 315.887ZM331.852 336.028H398.136V457H331.852V336.028ZM424.381 396.453C424.381 388.234 426.09 380.34 429.508 372.771C433.007 365.203 438.256 358.53 445.255 352.752C452.254 346.974 461.083 342.376 471.744 338.958C482.486 335.459 495.1 333.709 509.586 333.709C520.003 333.709 528.914 334.726 536.319 336.761C543.725 338.714 549.788 341.318 554.508 344.573C559.228 347.828 562.687 351.531 564.884 355.682C567.081 359.832 568.18 364.064 568.18 368.377C568.18 371.714 567.407 374.887 565.86 377.898C564.314 380.91 562.239 383.595 559.635 385.955C557.031 388.234 553.979 390.065 550.479 391.448C546.98 392.832 543.277 393.523 539.371 393.523L508.365 351.165C506.087 353.2 503.971 355.6 502.018 358.367C500.146 361.134 498.478 364.308 497.013 367.889C495.629 371.388 494.531 375.335 493.717 379.729C492.984 384.043 492.618 388.803 492.618 394.012C492.618 401.255 493.513 407.602 495.304 413.055C497.094 418.507 499.535 423.064 502.628 426.727C505.72 430.307 509.382 433.034 513.614 434.905C517.927 436.696 522.607 437.591 527.652 437.591C530.094 437.591 532.535 437.428 534.977 437.103C537.499 436.696 539.859 436.207 542.057 435.638C544.335 434.987 546.41 434.254 548.282 433.44C550.154 432.627 551.741 431.772 553.043 430.877L562.809 447.967C559.798 449.513 556.502 450.978 552.921 452.361C549.422 453.745 545.515 454.965 541.202 456.023C536.97 457 532.291 457.773 527.164 458.343C522.037 458.994 516.422 459.319 510.318 459.319C495.67 459.319 482.934 457.61 472.11 454.192C461.368 450.693 452.457 446.054 445.377 440.276C438.297 434.498 433.007 427.825 429.508 420.257C426.09 412.688 424.381 404.754 424.381 396.453ZM583.438 395.843C583.438 388.844 584.537 382.456 586.734 376.678C588.932 370.9 591.943 365.732 595.768 361.175C599.674 356.536 604.272 352.508 609.562 349.09C614.851 345.672 620.589 342.824 626.773 340.545C632.958 338.266 639.428 336.557 646.183 335.418C652.937 334.279 659.773 333.709 666.69 333.709C675.805 333.709 684.065 334.645 691.471 336.517C698.958 338.307 705.59 340.789 711.368 343.963C717.228 347.137 722.273 350.84 726.505 355.071C730.818 359.303 734.358 363.82 737.125 368.621C739.973 373.341 742.049 378.224 743.351 383.27C744.734 388.315 745.426 393.239 745.426 398.04L653.141 409.148C654.931 418.182 658.512 425.18 663.883 430.145C669.254 435.109 676.782 437.591 686.466 437.591C691.756 437.591 696.679 436.94 701.236 435.638C705.875 434.336 709.496 432.749 712.101 430.877L721.866 447.967C718.855 449.513 715.559 450.978 711.979 452.361C708.479 453.745 704.573 454.965 700.26 456.023C696.028 457 691.308 457.773 686.1 458.343C680.973 458.994 675.317 459.319 669.132 459.319C654.321 459.319 641.544 457.61 630.802 454.192C620.06 450.693 611.148 446.054 604.068 440.276C597.07 434.417 591.861 427.662 588.443 420.013C585.107 412.363 583.438 404.306 583.438 395.843ZM686.222 385.589C686.222 375.009 684.879 367.319 682.193 362.518C679.589 357.716 675.683 355.315 670.475 355.315C667.789 355.315 665.307 355.966 663.028 357.269C660.75 358.571 658.797 360.605 657.169 363.372C655.541 366.139 654.239 369.72 653.263 374.114C652.286 378.427 651.757 383.676 651.676 389.861L686.222 385.589Z" fill="#0D0D0D" fill-opacity="0.7"/>
</svg>
