<svg width="671" height="1024" viewBox="0 0 671 1024" fill="none" xmlns="http://www.w3.org/2000/svg">
<mask id="path-1-outside-1_422_10" maskUnits="userSpaceOnUse" x="11" y="148" width="422" height="366" fill="black">
<rect fill="white" x="11" y="148" width="422" height="366"/>
<path d="M146.729 240.76L104.736 149.207H253.418L431.152 512.244H271.729L244.873 454.139H101.807L75.1953 512.244H13.4277L146.729 240.76ZM219.238 398.23L173.34 298.621L127.686 398.23H219.238Z"/>
</mask>
<path d="M146.729 240.76L147.626 241.201L147.835 240.774L147.637 240.343L146.729 240.76ZM104.736 149.207V148.207H103.177L103.827 149.624L104.736 149.207ZM253.418 149.207L254.316 148.767L254.042 148.207H253.418V149.207ZM431.152 512.244V513.244H432.755L432.05 511.804L431.152 512.244ZM271.729 512.244L270.821 512.664L271.089 513.244H271.729V512.244ZM244.873 454.139L245.781 453.719L245.512 453.139H244.873V454.139ZM101.807 454.139V453.139H101.165L100.897 453.722L101.807 454.139ZM75.1953 512.244V513.244H75.8372L76.1045 512.661L75.1953 512.244ZM13.4277 512.244L12.5301 511.803L11.8227 513.244H13.4277V512.244ZM219.238 398.23V399.23H220.8L220.146 397.812L219.238 398.23ZM173.34 298.621L174.248 298.203L173.337 296.226L172.431 298.204L173.34 298.621ZM127.686 398.23L126.776 397.814L126.127 399.23H127.686V398.23ZM147.637 240.343L105.645 148.79L103.827 149.624L145.82 241.177L147.637 240.343ZM104.736 150.207H253.418V148.207H104.736V150.207ZM252.52 149.647L430.254 512.684L432.05 511.804L254.316 148.767L252.52 149.647ZM431.152 511.244H271.729V513.244H431.152V511.244ZM272.636 511.825L245.781 453.719L243.965 454.558L270.821 512.664L272.636 511.825ZM244.873 453.139H101.807V455.139H244.873V453.139ZM100.897 453.722L74.2861 511.828L76.1045 512.661L102.716 454.555L100.897 453.722ZM75.1953 511.244H13.4277V513.244H75.1953V511.244ZM14.3254 512.685L147.626 241.201L145.831 240.319L12.5301 511.803L14.3254 512.685ZM220.146 397.812L174.248 298.203L172.432 299.04L218.33 398.649L220.146 397.812ZM172.431 298.204L126.776 397.814L128.595 398.647L174.249 299.038L172.431 298.204ZM127.686 399.23H219.238V397.23H127.686V399.23Z" fill="#696565" mask="url(#path-1-outside-1_422_10)"/>
<mask id="path-3-outside-2_422_10" maskUnits="userSpaceOnUse" x="263" y="431" width="408" height="366" fill="black">
<rect fill="white" x="263" y="431" width="408" height="366"/>
<path d="M264.387 432.207H405.5V642.412L562.482 432.207H633.039L517.316 587.969L668.928 795.244H509.992L428.938 681.23L405.5 713.457V795H264.387V432.207Z"/>
</mask>
<path d="M264.387 432.207V431.207H263.387V432.207H264.387ZM405.5 432.207H406.5V431.207H405.5V432.207ZM405.5 642.412H404.5V645.422L406.301 643.01L405.5 642.412ZM562.482 432.207V431.207H561.981L561.681 431.609L562.482 432.207ZM633.039 432.207L633.842 432.803L635.028 431.207H633.039V432.207ZM517.316 587.969L516.514 587.372L516.074 587.964L516.509 588.559L517.316 587.969ZM668.928 795.244V796.244H670.898L669.735 794.654L668.928 795.244ZM509.992 795.244L509.177 795.824L509.476 796.244H509.992V795.244ZM428.938 681.23L429.753 680.651L428.947 679.518L428.129 680.642L428.938 681.23ZM405.5 713.457L404.691 712.869L404.5 713.132V713.457H405.5ZM405.5 795V796H406.5V795H405.5ZM264.387 795H263.387V796H264.387V795ZM264.387 433.207H405.5V431.207H264.387V433.207ZM404.5 432.207V642.412H406.5V432.207H404.5ZM406.301 643.01L563.284 432.805L561.681 431.609L404.699 641.814L406.301 643.01ZM562.482 433.207H633.039V431.207H562.482V433.207ZM632.236 431.611L516.514 587.372L518.119 588.565L633.842 432.803L632.236 431.611ZM516.509 588.559L668.121 795.835L669.735 794.654L518.124 587.378L516.509 588.559ZM668.928 794.244H509.992V796.244H668.928V794.244ZM510.807 794.665L429.753 680.651L428.122 681.81L509.177 795.824L510.807 794.665ZM428.129 680.642L404.691 712.869L406.309 714.045L429.746 681.819L428.129 680.642ZM404.5 713.457V795H406.5V713.457H404.5ZM405.5 794H264.387V796H405.5V794ZM265.387 795V432.207H263.387V795H265.387Z" fill="#696565" mask="url(#path-3-outside-2_422_10)"/>
</svg>
